<svg id="Capa_1" enable-background="new 0 0 512 512" height="512" viewBox="0 0 512 512" width="512" xmlns="http://www.w3.org/2000/svg"><g id="XMLID_1724_"><g id="XMLID_473_"><path id="XMLID_476_" d="m475.908 165.655-50.938-20.78c-5.117-2.087-10.951.369-13.036 5.482-2.087 5.114.368 10.95 5.481 13.037l50.938 20.78c11.751 4.794 20.092 14.911 22.742 26.926h-138.038c-4.705-25.013-26.699-44-53.057-44s-48.352 18.987-53.057 44h-226.943v-24c0-68.286 53.211-126.3 121.142-132.074 5.756-.489 11.733.447 17.278 2.709l30.637 12.498c1.381 29.384 25.719 52.866 55.438 52.866 14.159 0 27.567-5.332 37.776-14.839l51.791 21.128c5.115 2.086 10.95-.369 13.036-5.482 2.087-5.114-.368-10.95-5.481-13.037l-58.134-23.716c-4.061-1.656-8.73-.472-11.513 2.921-6.781 8.276-16.795 13.023-27.475 13.023-19.575 0-35.5-15.925-35.5-35.5 0-.983.049-2.016.149-3.158.385-4.37-2.122-8.48-6.184-10.137l-36.986-15.088c-8.458-3.45-17.63-4.876-26.526-4.119-37.962 3.227-73.135 20.461-99.041 48.529-26.057 28.236-40.407 64.983-40.407 103.476v232c0 31.981 26.019 58 58 58h73.368c3.625 0 6.966-1.961 8.732-5.127 7.185-12.875 20.789-20.873 35.503-20.873s28.318 7.998 35.503 20.873c1.767 3.166 5.108 5.127 8.732 5.127h234.162c31.981 0 58-26.019 58-58v-36.737c0-5.523-4.478-10-10-10-18.748 0-34-15.253-34-34 0-18.748 15.252-34 34-34 5.522 0 10-4.477 10-10v-75.004c0-23.68-14.167-44.759-36.092-53.704zm-175.908 21.445c18.748 0 34 15.252 34 34 0 18.747-15.252 34-34 34s-34-15.253-34-34c0-18.748 15.252-34 34-34zm148 151.263c0 26.359 18.986 48.368 44 53.072v27.665c0 20.953-17.047 38-38 38h-228.635c-11.27-16.173-29.831-26-49.762-26-19.93 0-38.492 9.827-49.762 26h-67.841c-20.953 0-38-17.047-38-38v-48.774c6.403 3.954 13.938 6.242 22 6.242 23.159 0 42-18.841 42-42s-18.841-42-42-42c-8.062 0-15.597 2.288-22 6.242v-67.71h226.943c4.705 25.012 26.699 44 53.057 44s48.352-18.988 53.057-44h138.943v54.191c-25.014 4.704-44 26.713-44 53.072zm-428-3.795c0-12.131 9.869-22 22-22s22 9.869 22 22-9.869 22-22 22-22-9.869-22-22z"/><path id="XMLID_1276_" d="m340.181 339.1c-23.159 0-42 18.841-42 42s18.841 42 42 42 42-18.841 42-42-18.841-42-42-42zm0 64c-12.131 0-22-9.869-22-22s9.869-22 22-22 22 9.869 22 22c0 12.13-9.87 22-22 22z"/><path id="XMLID_1407_" d="m111.666 103.1c-23.159 0-42 18.841-42 42s18.841 42 42 42 42-18.841 42-42-18.841-42-42-42zm0 64c-12.131 0-22-9.869-22-22s9.869-22 22-22 22 9.869 22 22c.001 12.13-9.869 22-22 22z"/><path id="XMLID_1408_" d="m397.5 272.599c-2.63 0-5.21 1.07-7.07 2.93s-2.93 4.44-2.93 7.07 1.069 5.21 2.93 7.07c1.86 1.86 4.44 2.93 7.07 2.93s5.21-1.07 7.069-2.93c1.86-1.86 2.931-4.44 2.931-7.07s-1.07-5.21-2.931-7.07c-1.859-1.86-4.439-2.93-7.069-2.93z"/><path id="XMLID_1447_" d="m207.65 346.569c-2.63 0-5.21 1.07-7.07 2.93s-2.92 4.44-2.92 7.07 1.06 5.21 2.92 7.07 4.44 2.93 7.07 2.93c2.64 0 5.21-1.07 7.07-2.93 1.87-1.86 2.93-4.44 2.93-7.07s-1.06-5.21-2.93-7.07c-1.86-1.86-4.43-2.93-7.07-2.93z"/><path id="XMLID_1464_" d="m150.02 272.599c-2.63 0-5.21 1.07-7.07 2.93s-2.93 4.44-2.93 7.07 1.07 5.21 2.93 7.07 4.44 2.93 7.07 2.93 5.21-1.07 7.07-2.93 2.93-4.44 2.93-7.07-1.07-5.21-2.93-7.07-4.44-2.93-7.07-2.93z"/><path id="XMLID_1465_" d="m379.52 147.129c2.63 0 5.21-1.06 7.07-2.93 1.86-1.86 2.93-4.43 2.93-7.07 0-2.63-1.069-5.2-2.93-7.07-1.86-1.86-4.44-2.93-7.07-2.93s-5.21 1.07-7.069 2.93c-1.86 1.86-2.931 4.44-2.931 7.07 0 2.64 1.07 5.21 2.931 7.07 1.859 1.87 4.439 2.93 7.069 2.93z"/></g></g></svg>