<svg id="Layer_5" enable-background="new 0 0 64 64" height="512" viewBox="0 0 64 64" width="512" xmlns="http://www.w3.org/2000/svg"><g><path d="m37 8h-2v2h2c5.514 0 10 4.486 10 10h2c0-6.617-5.383-12-12-12z"/><path d="m63 12v-1h-3c-3.261 0-6.114 1.75-7.693 4.354-1.996-6.563-8.101-11.354-15.307-11.354h-26c-5.607 0-10 7.028-10 16s4.393 16 10 16h6.248c-.042.042-.086.078-.128.12-6.166 6.166-7.974 14.018-4.116 17.875l4 4c1.37 1.37 3.242 2.025 5.365 2.025 3.855 0 8.534-2.164 12.511-6.14.386-.386.756-.788 1.117-1.198.357.405.731.805 1.124 1.197 3.977 3.977 8.655 6.141 12.511 6.141 2.122 0 3.995-.656 5.365-2.025l4-4c3.858-3.858 2.05-11.709-4.116-17.875-2.101-2.101-4.396-3.681-6.663-4.719 1.931-1.895 3.313-4.222 4.081-6.771 1.575 2.613 4.433 4.37 7.701 4.37h3v-1c0-3.483-1.993-6.505-4.896-8 2.903-1.495 4.896-4.517 4.896-8zm-60 8c0-7.589 3.664-14 8-14s8 6.411 8 14-3.664 14-8 14-8-6.411-8-14zm15.534 17.534c2.622-2.622 5.683-4.47 8.618-5.204 2.757-.688 5.039-.302 6.429 1.089.338.338.596.749.816 1.192l-1.393 1.393c-2.252 2.252-2.56 5.867-1.211 9.712-.694.957-1.464 1.885-2.328 2.75-5.194 5.193-12.085 7.078-15.047 4.116-2.962-2.963-1.077-9.854 4.116-15.048zm14.932 14.932c-5.194 5.193-12.085 7.078-15.047 4.116l-.582-.582c.177.009.352.021.533.021 3.855 0 8.534-2.164 12.511-6.141.65-.65 1.245-1.337 1.809-2.04.548 1.092 1.233 2.184 2.031 3.255-.402.47-.816.932-1.255 1.371zm20.116 4.115c-1.392 1.39-3.673 1.777-6.429 1.089-2.936-.734-5.996-2.583-8.618-5.204-5.193-5.193-7.078-12.084-4.116-15.047l.585-.585c-.214 3.953 1.953 8.882 6.117 13.046 3.977 3.977 8.655 6.141 12.511 6.141.18 0 .356-.011.532-.021zm4-4c-1.392 1.391-3.672 1.776-6.429 1.089-2.936-.734-5.996-2.583-8.618-5.204-5.193-5.193-7.078-12.084-4.116-15.047 2.963-2.962 9.854-1.078 15.047 4.116 5.193 5.193 7.078 12.083 4.116 15.046zm-11.458-21.989c-3.621-1.116-6.983-.724-9.12 1.412l-1.004 1.005-1.004-1.004c-3.372-3.372-9.794-2.415-15.475 1.995h-3.617c3.062-2.705 5.096-7.9 5.096-14s-2.034-11.295-5.096-14h21.096c7.72 0 14 6.28 14 14 0 4.104-1.78 7.926-4.876 10.592zm14.805-3.592h-.929c-3.521 0-6.442-2.612-6.929-6h.929c3.521 0 6.442 2.612 6.929 6zm-6.929-8h-.929c.487-3.388 3.408-6 6.929-6h.929c-.487 3.388-3.408 6-6.929 6z"/><path d="m31 8h2v2h-2z"/><path d="m27 8h2v2h-2z"/><path d="m10 26c-1.654 0-3 1.346-3 3h2c0-.551.449-1 1-1s1 .449 1 1-.449 1-1 1v2c1.654 0 3-1.346 3-3s-1.346-3-3-3z"/><path d="m8 17c1.654 0 3-1.346 3-3s-1.346-3-3-3v2c.551 0 1 .449 1 1s-.449 1-1 1-1-.449-1-1h-2c0 1.654 1.346 3 3 3z"/><path d="m15 22c1.654 0 3-1.346 3-3h-2c0 .551-.449 1-1 1s-1-.449-1-1 .449-1 1-1v-2c-1.654 0-3 1.346-3 3s1.346 3 3 3z"/><path d="m5 20.586h2v2.828h-2z" transform="matrix(.707 -.707 .707 .707 -13.799 10.686)"/><path d="m12.382 10h2.236v2h-2.236z" transform="matrix(.447 -.894 .894 .447 -2.376 18.155)"/><path d="m14 24.382h2v2.236h-2z" transform="matrix(.447 -.894 .894 .447 -14.516 27.513)"/><path d="m18 47c.551 0 1 .449 1 1h2c0-1.654-1.346-3-3-3s-3 1.346-3 3 1.346 3 3 3v-2c-.551 0-1-.449-1-1s.449-1 1-1z"/><path d="m27 42c1.654 0 3-1.346 3-3s-1.346-3-3-3v2c.551 0 1 .449 1 1s-.449 1-1 1-1-.449-1-1h-2c0 1.654 1.346 3 3 3z"/><path d="m18 39.586h2v2.828h-2z" transform="matrix(.707 -.707 .707 .707 -23.426 25.444)"/><path d="m23 45.382h2v2.236h-2z" transform="matrix(.447 -.894 .894 .447 -28.324 47.171)"/><path d="m21.382 36h2.236v2h-2.236z" transform="matrix(.447 -.894 .894 .447 -20.656 40.578)"/><path d="m19.882 50.5h2.236v2h-2.236z" transform="matrix(.894 -.447 .447 .894 -20.815 14.829)"/><path d="m54 47c.551 0 1 .449 1 1s-.449 1-1 1v2c1.654 0 3-1.346 3-3s-1.346-3-3-3-3 1.346-3 3h2c0-.551.449-1 1-1z"/><path d="m45 42c1.654 0 3-1.346 3-3h-2c0 .551-.449 1-1 1s-1-.449-1-1 .449-1 1-1v-2c-1.654 0-3 1.346-3 3s1.346 3 3 3z"/><path d="m51.586 40h2.828v2h-2.828z" transform="matrix(.707 -.707 .707 .707 -13.468 49.485)"/><path d="m46.882 45.5h2.236v2h-2.236z" transform="matrix(.894 -.447 .447 .894 -15.728 26.375)"/><path d="m43.5 43.882h2v2.236h-2z" transform="matrix(.894 -.447 .447 .894 -15.427 24.652)"/><path d="m38.882 35.5h2.236v2h-2.236z" transform="matrix(.894 -.447 .447 .894 -12.1 21.742)"/><path d="m48.5 35.882h2v2.236h-2z" transform="matrix(.894 -.447 .447 .894 -11.321 26.043)"/><path d="m50 50.382h2v2.236h-2z" transform="matrix(.447 -.894 .894 .447 -17.871 74.084)"/></g></svg>